# Blender v2.80 (sub 75) OBJ File: 'head.blend'
# www.blender.org
mtllib head.mtl
o Cube_Cube.002
v -1.000000 -1.000000 -1.000000
v 1.000000 -1.000000 -1.000000
v -1.000000 -1.000000 1.000000
v -1.000000 0.500000 1.000000
v 1.000000 -1.000000 1.000000
v 1.000000 0.500000 1.000000
v 0.750000 0.500000 1.000000
v -0.750000 0.500000 1.000000
v 0.750000 0.750000 1.000000
v -0.750000 0.750000 1.000000
v 0.375000 0.750000 1.000000
v -0.375000 0.750000 1.000000
v 0.375000 0.950000 1.000000
v -0.375000 0.950000 1.000000
v 1.000000 -1.000000 -0.500000
v 1.000000 0.500000 -0.500000
v -1.000000 -1.000000 -0.500000
v -1.000000 0.500000 -0.500000
v 0.750000 0.500000 -0.500000
v -0.750000 0.500000 -0.500000
v 0.750000 0.750000 -0.500000
v -0.750000 0.750000 -0.500000
v 0.375000 0.750000 -0.500000
v -0.375000 0.750000 -0.500000
v 0.375000 0.950000 -0.500000
v -0.375000 0.950000 -0.500000
v -1.000000 0.269759 -1.000000
v 1.000000 0.269759 -1.000000
v -1.000000 0.269759 -0.500000
v -0.750000 0.269759 -0.500000
v -0.750000 0.269759 -1.000000
v 0.750000 0.269759 -1.000000
v -0.750000 0.519759 -0.500000
v -0.750000 0.519759 -1.000000
v 0.750000 0.519759 -1.000000
v -0.375000 0.519759 -0.500000
v -0.375000 0.519759 -1.000000
v 0.375000 0.519759 -1.000000
v -0.375000 0.719759 -1.000000
v 0.375000 0.719759 -1.000000
v -0.375000 0.719759 -0.500000
v 1.000000 0.269759 -0.500000
v 0.750000 0.269759 -0.500000
v 0.750000 0.519759 -0.500000
v 0.375000 0.519759 -0.500000
v 0.375000 0.719759 -0.500000
vt 0.375000 0.500000
vt 0.625000 0.500000
vt 0.625000 0.750000
vt 0.375000 0.750000
vt 0.625000 0.937500
vt 0.625000 0.937500
vt 0.625000 0.937500
vt 0.625000 0.937500
vt 0.187500 0.500000
vt 0.187500 0.750000
vt 0.625000 0.937500
vt 0.625000 0.750000
vt 0.625000 0.750000
vt 0.625000 0.937500
vt 0.625000 0.500000
vt 0.625000 0.937500
vt 0.625000 0.500000
vt 0.625000 0.500000
vt 0.625000 0.750000
vt 0.625000 0.500000
vt 0.625000 0.750000
vt 0.625000 0.312500
vt 0.625000 0.312500
vt 0.625000 0.312500
vt 0.625000 0.312500
vt 0.625000 0.312500
vt 0.625000 0.312500
vt 0.625000 0.312500
vt 0.625000 0.312500
vt 0.812500 0.500000
vt 0.812500 0.750000
vt 0.625000 0.312500
vt 0.625000 0.937500
vt 0.625000 0.937500
vt 0.125000 0.500000
vt 0.125000 0.750000
vt 0.625000 0.937500
vt 0.625000 0.250000
vt 0.625000 0.250000
vt 0.625000 0.250000
vt 0.625000 0.312500
vt 0.625000 0.250000
vt 0.812500 0.500000
vt 0.875000 0.500000
vt 0.875000 0.750000
vt 0.812500 0.750000
vt 0.625000 0.250000
vt 0.625000 1.000000
vt 0.625000 1.000000
vt 0.625000 1.000000
vt 0.625000 1.000000
vt 0.625000 1.000000
vn -0.0000 0.0000 1.0000
vn 0.0000 -1.0000 0.0000
vn -1.0000 0.0000 -0.0000
vn 0.0000 1.0000 0.0000
vn 0.0000 0.0000 -1.0000
vn 1.0000 0.0000 0.0000
usemtl None
s off
f 5/1/1 6/2/1 4/3/1 3/4/1
f 24/5/1 26/6/1 41/7/1 36/8/1
f 15/9/2 5/1/2 3/4/2 17/10/2
f 20/11/3 8/12/3 10/13/3 22/14/3
f 4/3/2 6/2/2 7/15/2 8/12/2
f 18/16/4 4/3/4 8/12/4 20/11/4
f 10/13/2 9/17/2 11/18/2 12/19/2
f 8/12/1 7/15/1 9/17/1 10/13/1
f 12/19/1 11/18/1 13/20/1 14/21/1
f 22/14/4 10/13/4 12/19/4 24/5/4
f 19/22/5 16/23/5 42/24/5 43/25/5
f 24/5/3 12/19/3 14/21/3 26/6/3
f 11/18/6 23/26/6 25/27/6 13/20/6
f 25/27/1 23/26/1 45/28/1 46/29/1
f 13/20/4 25/30/4 26/31/4 14/21/4
f 9/17/4 21/32/4 23/26/4 11/18/4
f 7/15/6 19/22/6 21/32/6 9/17/6
f 20/11/1 22/14/1 33/33/1 30/34/1
f 6/2/4 16/23/4 19/22/4 7/15/4
f 2/35/2 15/9/2 17/10/2 1/36/2
f 18/16/5 20/11/5 30/34/5 29/37/5
f 42/24/4 28/38/4 32/39/4 43/25/4
f 43/25/6 32/39/6 35/40/6 44/41/6
f 44/41/4 35/40/4 38/42/4 45/28/4
f 46/43/4 40/44/4 39/45/4 41/46/4
f 45/28/6 38/42/6 40/47/6 46/29/6
f 37/48/3 36/8/3 41/7/3 39/49/3
f 34/50/4 33/33/4 36/8/4 37/48/4
f 27/51/4 29/37/4 30/34/4 31/52/4
f 31/52/3 30/34/3 33/33/3 34/50/3
f 26/31/5 25/30/5 46/43/5 41/46/5
f 23/26/5 21/32/5 44/41/5 45/28/5
f 22/14/5 24/5/5 36/8/5 33/33/5
f 21/32/1 19/22/1 43/25/1 44/41/1
f 31/52/5 34/50/5 37/48/5 38/42/5 35/40/5 32/39/5
f 40/47/5 38/42/5 37/48/5 39/49/5
f 2/35/5 1/36/5 27/51/5 31/52/5 32/39/5 28/38/5
f 1/36/3 17/10/3 29/37/3 27/51/3
f 4/3/3 18/16/3 29/37/3 17/10/3 3/4/3
f 16/23/6 6/2/6 5/1/6 15/9/6 42/24/6
f 15/9/6 2/35/6 28/38/6 42/24/6
