# Blender v2.80 (sub 75) OBJ File: 'pyramid.blend'
# www.blender.org
mtllib pyramid.mtl
o Cube
v 1.000000 1.000000 -1.000000
v 1.000000 1.000000 1.000000
v 0.000000 -1.000000 0.000000
v -1.000000 1.000000 -1.000000
v -1.000000 1.000000 1.000000
vt 0.375000 0.000000
vt 0.625000 0.000000
vt 0.625000 0.250000
vt 0.375000 0.250000
vt 0.375000 0.250000
vt 0.625000 0.250000
vt 0.625000 0.500000
vt 0.375000 0.500000
vt 0.625000 0.750000
vt 0.125000 0.500000
vt 0.375000 0.500000
vt 0.375000 0.750000
vt 0.625000 0.500000
vt 0.875000 0.500000
vt 0.875000 0.750000
vn 0.0000 1.0000 0.0000
vn 0.0000 -0.4472 0.8944
vn -0.8944 -0.4472 0.0000
vn 0.8944 -0.4472 0.0000
vn 0.0000 -0.4472 -0.8944
usemtl Material
s off
f 1/1/1 4/2/1 5/3/1 2/4/1
f 3/5/2 2/6/2 5/7/2
f 3/8/3 5/7/3 4/9/3
f 3/10/4 1/11/4 2/12/4
f 3/13/5 4/14/5 1/15/5
