# Blender v2.80 (sub 75) OBJ File: 'segment.blend'
# www.blender.org
mtllib segment.mtl
o Cylinder
v 0.000000 1.000000 -1.000000
v 0.000000 1.000000 1.000000
v 0.098017 0.995185 -1.000000
v 0.098017 0.995185 1.000000
v 0.195090 0.980785 -1.000000
v 0.195090 0.980785 1.000000
v 0.290285 0.956940 -1.000000
v 0.290285 0.956940 1.000000
v 0.382683 0.923880 -1.000000
v 0.382683 0.923879 1.000000
v 0.471397 0.881921 -1.000000
v 0.471397 0.881921 1.000000
v 0.555570 0.831470 -1.000000
v 0.555570 0.831470 1.000000
v 0.634393 0.773011 -1.000000
v 0.634393 0.773010 1.000000
v 0.707107 0.707107 -1.000000
v 0.707107 0.707107 1.000000
v 0.773010 0.634393 -1.000000
v 0.773010 0.634393 1.000000
v 0.831470 0.555570 -1.000000
v 0.831470 0.555570 1.000000
v 0.881921 0.471397 -1.000000
v 0.881921 0.471397 1.000000
v 0.923880 0.382683 -1.000000
v 0.923880 0.382683 1.000000
v 0.956940 0.290285 -1.000000
v 0.956940 0.290285 1.000000
v 0.980785 0.195090 -1.000000
v 0.980785 0.195090 1.000000
v 0.995185 0.098017 -1.000000
v 0.995185 0.098017 1.000000
v 1.000000 -0.000000 -1.000000
v 1.000000 -0.000000 1.000000
v -1.000000 -1.000000 1.000000
v -1.000000 -1.000000 -1.000000
v 1.000000 -1.000000 1.000000
v 1.000000 -1.000000 -1.000000
v -1.000000 -0.000000 -1.000000
v -1.000000 -0.000001 1.000000
v -0.995185 0.098017 -1.000000
v -0.995185 0.098016 1.000000
v -0.980785 0.195090 -1.000000
v -0.980785 0.195089 1.000000
v -0.956941 0.290284 -1.000000
v -0.956941 0.290284 1.000000
v -0.923880 0.382682 -1.000000
v -0.923880 0.382682 1.000000
v -0.881922 0.471395 -1.000000
v -0.881922 0.471395 1.000000
v -0.831471 0.555569 -1.000000
v -0.831471 0.555569 1.000000
v -0.773012 0.634392 -1.000000
v -0.773012 0.634392 1.000000
v -0.707108 0.707105 -1.000000
v -0.707108 0.707105 1.000000
v -0.634395 0.773009 -1.000000
v -0.634395 0.773009 1.000000
v -0.555572 0.831468 -1.000000
v -0.555572 0.831468 1.000000
v -0.471399 0.881920 -1.000000
v -0.471399 0.881920 1.000000
v -0.382686 0.923878 -1.000000
v -0.382686 0.923878 1.000000
v -0.290288 0.956940 -1.000000
v -0.290288 0.956939 1.000000
v -0.195093 0.980785 -1.000000
v -0.195093 0.980785 1.000000
v -0.098021 0.995184 -1.000000
v -0.098021 0.995184 1.000000
vt 1.000000 0.500000
vt 1.000000 1.000000
vt 0.984375 1.000000
vt 0.984375 0.500000
vt 0.968750 1.000000
vt 0.968750 0.500000
vt 0.953125 1.000000
vt 0.953125 0.500000
vt 0.937500 1.000000
vt 0.937500 0.500000
vt 0.921875 1.000000
vt 0.921875 0.500000
vt 0.906250 1.000000
vt 0.906250 0.500000
vt 0.890625 1.000000
vt 0.890625 0.500000
vt 0.875000 1.000000
vt 0.875000 0.500000
vt 0.859375 1.000000
vt 0.859375 0.500000
vt 0.843750 1.000000
vt 0.843750 0.500000
vt 0.828125 1.000000
vt 0.828125 0.500000
vt 0.812500 1.000000
vt 0.812500 0.500000
vt 0.796875 1.000000
vt 0.796875 0.500000
vt 0.781250 1.000000
vt 0.781250 0.500000
vt 0.765625 1.000000
vt 0.765625 0.500000
vt 0.750000 1.000000
vt 0.750000 0.500000
vt 0.250000 0.500000
vt 0.250000 1.000000
vt 0.234375 1.000000
vt 0.234375 0.500000
vt 0.218750 1.000000
vt 0.218750 0.500000
vt 0.203125 1.000000
vt 0.203125 0.500000
vt 0.187500 1.000000
vt 0.187500 0.500000
vt 0.171875 1.000000
vt 0.171875 0.500000
vt 0.156250 1.000000
vt 0.156250 0.500000
vt 0.140625 1.000000
vt 0.140625 0.500000
vt 0.125000 1.000000
vt 0.125000 0.500000
vt 0.109375 1.000000
vt 0.109375 0.500000
vt 0.093750 1.000000
vt 0.093750 0.500000
vt 0.078125 1.000000
vt 0.078125 0.500000
vt 0.062500 1.000000
vt 0.062500 0.500000
vt 0.046875 1.000000
vt 0.046875 0.500000
vt 0.031250 1.000000
vt 0.031250 0.500000
vt 0.250000 0.500000
vt 0.250000 1.000000
vt 0.015625 1.000000
vt 0.015625 0.500000
vt 0.000000 1.000000
vt 0.000000 0.500000
vt 0.750000 1.000000
vt 0.750000 0.500000
vn 0.0491 0.9988 0.0000
vn 0.1467 0.9892 0.0000
vn 0.2430 0.9700 0.0000
vn 0.3369 0.9415 0.0000
vn 0.4276 0.9040 0.0000
vn 0.5141 0.8577 0.0000
vn 0.5957 0.8032 0.0000
vn 0.6716 0.7410 0.0000
vn 0.7410 0.6716 0.0000
vn 0.8032 0.5957 0.0000
vn 0.8577 0.5141 0.0000
vn 0.9040 0.4276 0.0000
vn 0.9415 0.3369 0.0000
vn 0.9700 0.2430 0.0000
vn 0.9892 0.1467 0.0000
vn 0.9988 0.0491 0.0000
vn -0.9988 0.0491 0.0000
vn -0.9892 0.1467 0.0000
vn -0.9700 0.2430 0.0000
vn -0.9415 0.3369 0.0000
vn -0.9040 0.4276 0.0000
vn -0.8577 0.5141 0.0000
vn -0.8032 0.5957 0.0000
vn -0.7410 0.6716 0.0000
vn -0.6716 0.7410 0.0000
vn -0.5957 0.8032 0.0000
vn -0.5141 0.8577 0.0000
vn -0.4276 0.9040 0.0000
vn -0.3369 0.9415 0.0000
vn -0.2430 0.9700 0.0000
vn -1.0000 0.0000 0.0000
vn -0.1467 0.9892 0.0000
vn -0.0491 0.9988 0.0000
vn 1.0000 0.0000 0.0000
vn 0.0000 -1.0000 0.0000
vn -0.0000 -0.0000 1.0000
vn -0.0000 0.0000 -1.0000
usemtl None
s off
f 1/1/1 2/2/1 4/3/1 3/4/1
f 3/4/2 4/3/2 6/5/2 5/6/2
f 5/6/3 6/5/3 8/7/3 7/8/3
f 7/8/4 8/7/4 10/9/4 9/10/4
f 9/10/5 10/9/5 12/11/5 11/12/5
f 11/12/6 12/11/6 14/13/6 13/14/6
f 13/14/7 14/13/7 16/15/7 15/16/7
f 15/16/8 16/15/8 18/17/8 17/18/8
f 17/18/9 18/17/9 20/19/9 19/20/9
f 19/20/10 20/19/10 22/21/10 21/22/10
f 21/22/11 22/21/11 24/23/11 23/24/11
f 23/24/12 24/23/12 26/25/12 25/26/12
f 25/26/13 26/25/13 28/27/13 27/28/13
f 27/28/14 28/27/14 30/29/14 29/30/14
f 29/30/15 30/29/15 32/31/15 31/32/15
f 31/32/16 32/31/16 34/33/16 33/34/16
f 39/35/17 40/36/17 42/37/17 41/38/17
f 41/38/18 42/37/18 44/39/18 43/40/18
f 43/40/19 44/39/19 46/41/19 45/42/19
f 45/42/20 46/41/20 48/43/20 47/44/20
f 47/44/21 48/43/21 50/45/21 49/46/21
f 49/46/22 50/45/22 52/47/22 51/48/22
f 51/48/23 52/47/23 54/49/23 53/50/23
f 53/50/24 54/49/24 56/51/24 55/52/24
f 55/52/25 56/51/25 58/53/25 57/54/25
f 57/54/26 58/53/26 60/55/26 59/56/26
f 59/56/27 60/55/27 62/57/27 61/58/27
f 61/58/28 62/57/28 64/59/28 63/60/28
f 63/60/29 64/59/29 66/61/29 65/62/29
f 65/62/30 66/61/30 68/63/30 67/64/30
f 40/36/31 39/35/31 36/65/31 35/66/31
f 67/64/32 68/63/32 70/67/32 69/68/32
f 69/68/33 70/67/33 2/69/33 1/70/33
f 33/34/34 34/33/34 37/71/34 38/72/34
f 36/65/35 38/72/35 37/71/35 35/66/35
f 4/3/36 2/69/36 70/67/36 68/63/36 66/61/36 64/59/36 62/57/36 60/55/36 58/53/36 56/51/36 54/49/36 52/47/36 50/45/36 48/43/36 46/41/36 44/39/36 42/37/36 40/36/36 35/66/36 37/71/36 34/33/36 32/31/36 30/29/36 28/27/36 26/25/36 24/23/36 22/21/36 20/19/36 18/17/36 16/15/36 14/13/36 12/11/36 10/9/36 8/7/36 6/5/36
f 3/4/37 5/6/37 7/8/37 9/10/37 11/12/37 13/14/37 15/16/37 17/18/37 19/20/37 21/22/37 23/24/37 25/26/37 27/28/37 29/30/37 31/32/37 33/34/37 38/72/37 36/65/37 39/35/37 41/38/37 43/40/37 45/42/37 47/44/37 49/46/37 51/48/37 53/50/37 55/52/37 57/54/37 59/56/37 61/58/37 63/60/37 65/62/37 67/64/37 69/68/37 1/70/37
